HIERARCHY
ROOT root
{
	OFFSET 0.000000 0.000000 0.000000
	CHANNELS 6 Xposition Yposition Zposition Zrotation Yrotation Xrotation
	JOINT lhip
	{
		OFFSET 0.058581 -0.082280 -0.017664
		CHANNELS 3 Zrotation Yrotation Xrotation
		JOINT lknee
		{
			OFFSET 0.043451 -0.386469 0.008037
			CHANNELS 3 Zrotation Yrotation Xrotation
			JOINT lankle
			{
				OFFSET -0.014790 -0.426874 -0.037428
				CHANNELS 3 Zrotation Yrotation Xrotation
				JOINT ltoe
				{
					OFFSET 0.041054 -0.060286 0.122042
					CHANNELS 3 Zrotation Yrotation Xrotation
					End Site
					{
						OFFSET 0.000000 0.000000 0.000000
					}
				}
			}
		}
	}
	JOINT rhip
	{
		OFFSET -0.060310 -0.090513 -0.013543
		CHANNELS 3 Zrotation Yrotation Xrotation
		JOINT rknee
		{
			OFFSET -0.043257 -0.383688 -0.004843
			CHANNELS 3 Zrotation Yrotation Xrotation
			JOINT rankle
			{
				OFFSET 0.019056 -0.420046 -0.034562
				CHANNELS 3 Zrotation Yrotation Xrotation
				JOINT rtoe
				{
					OFFSET -0.034840 -0.062106 0.130323
					CHANNELS 3 Zrotation Yrotation Xrotation
					End Site
					{
						OFFSET 0.000000 0.000000 0.000000
					}
				}
			}
		}
	}
	JOINT lowerback
	{
		OFFSET 0.004439 0.124404 -0.038385
		CHANNELS 3 Zrotation Yrotation Xrotation
		JOINT upperback
		{
			OFFSET 0.004488 0.137956 0.026820
			CHANNELS 3 Zrotation Yrotation Xrotation
			JOINT chest
			{
				OFFSET -0.002265 0.056032 0.002855
				CHANNELS 3 Zrotation Yrotation Xrotation
				JOINT lowerneck
				{
					OFFSET -0.013390 0.211636 -0.033468
					CHANNELS 3 Zrotation Yrotation Xrotation
					JOINT upperneck
					{
						OFFSET 0.010113 0.088937 0.050410
						CHANNELS 3 Zrotation Yrotation Xrotation
						End Site
						{
							OFFSET 0.000000 0.000000 0.000000
						}
					}
				}
				JOINT lclavicle
				{
					OFFSET 0.071702 0.114000 -0.018898
					CHANNELS 3 Zrotation Yrotation Xrotation
					JOINT lshoulder
					{
						OFFSET 0.122921 0.045205 -0.019046
						CHANNELS 3 Zrotation Yrotation Xrotation
						JOINT lelbow
						{
							OFFSET 0.255332 -0.015649 -0.022946
							CHANNELS 3 Zrotation Yrotation Xrotation
							JOINT lwrist
							{
								OFFSET 0.265709 0.012698 -0.007375
								CHANNELS 3 Zrotation Yrotation Xrotation
								End Site
								{
									OFFSET 0.000000 0.000000 0.000000
								}
							}
						}
					}
				}
				JOINT rclavicle
				{
					OFFSET -0.082954 0.112472 -0.023707
					CHANNELS 3 Zrotation Yrotation Xrotation
					JOINT rshoulder
					{
						OFFSET -0.113228 0.046853 -0.008472
						CHANNELS 3 Zrotation Yrotation Xrotation
						JOINT relbow
						{
							OFFSET -0.260127 -0.014369 -0.031269
							CHANNELS 3 Zrotation Yrotation Xrotation
							JOINT rwrist
							{
								OFFSET -0.269108 0.006794 -0.006027
								CHANNELS 3 Zrotation Yrotation Xrotation
								End Site
								{
									OFFSET 0.000000 0.000000 0.000000
								}
							}
						}
					}
				}
			}
		}
	}
}
MOTION
Frames: 17
Frame Time: 0.033333
-0.018718 0.199194 0.954108 112.607350 -6.572591 80.671376 -0.887906 1.539368 -14.767712 -7.688940 -12.936055 31.177355 -2.110795 8.550363 -8.051625 0.000000 -0.000000 0.000000 -8.076622 -15.508791 -13.050275 -3.488745 -9.461898 43.316133 4.307655 -18.978484 -20.347733 0.000000 -0.000000 0.000000 5.164356 4.828233 29.034211 -6.920735 3.751525 2.779581 -0.954380 6.577865 5.836263 -6.410848 -11.298420 16.398758 10.731015 -4.114905 -3.452094 12.558628 -7.900430 -17.113205 6.095052 -6.221810 -11.261719 100.469457 -65.051784 -94.983065 -2.249541 -17.918722 -37.243205 -21.456986 22.208601 -17.425706 -1.924756 15.232684 -22.125032 -36.138548 47.451711 -27.929871 15.999405 -1.350294 14.341826 
-0.019485 0.199278 0.949430 112.544542 -6.667381 80.064291 -1.204612 1.627380 -15.171220 -7.761348 -12.774824 33.044340 -1.765220 8.696977 -8.879017 0.000000 -0.000000 0.000000 -8.305146 -15.435982 -13.244578 -3.605356 -9.139078 44.765232 4.167166 -19.127974 -20.898183 0.000000 -0.000000 0.000000 5.619951 4.862324 29.384988 -6.348601 3.920172 3.116591 -0.601898 6.890769 5.818961 -7.112710 -11.776595 16.977086 10.325574 -4.829803 -4.023496 12.922605 -8.037437 -17.158270 6.550381 -6.020857 -11.888875 100.202216 -64.323936 -95.608819 -2.348012 -17.579577 -37.639298 -20.872058 22.689195 -17.100992 -1.526649 15.303468 -21.662242 -36.187717 47.996108 -27.386925 16.242362 -2.243157 15.957555 
-0.020320 0.200028 0.946091 112.092491 -6.719385 79.519736 -1.468142 1.544356 -15.172356 -7.673103 -12.677540 34.263563 -1.566307 9.202864 -9.490462 0.000000 -0.000000 0.000000 -8.492510 -15.243198 -13.295752 -3.629103 -8.803407 45.761767 4.063746 -19.168355 -21.324265 0.000000 -0.000000 0.000000 5.809193 4.942243 29.502434 -5.625856 3.962936 3.686891 -0.109398 7.040338 5.761676 -7.665716 -11.976884 17.423345 9.621706 -5.355043 -4.405338 13.441988 -7.983538 -17.280324 7.067192 -6.182649 -12.787248 99.117928 -64.105363 -95.323307 -2.036363 -16.808178 -37.206797 -20.413351 23.041223 -16.504584 -1.233312 15.613564 -21.546471 -35.657104 48.534243 -26.965153 15.650264 -2.084162 16.105147 
-0.020772 0.201763 0.944437 111.030786 -6.670899 79.151902 -1.580788 1.942405 -15.035495 -7.468207 -12.445721 35.173391 -1.573206 9.646122 -10.103885 0.000000 -0.000000 0.000000 -8.485543 -15.134325 -13.247498 -3.450093 -8.162287 46.149466 3.864116 -18.991693 -21.490735 0.000000 -0.000000 0.000000 5.933786 4.939176 29.464485 -5.027679 3.866032 3.982234 0.373396 7.156247 5.902220 -8.232841 -11.916340 17.609673 8.789164 -5.447360 -4.454084 14.049998 -8.311896 -17.434104 7.817656 -5.835428 -13.428568 97.751514 -63.932039 -94.534606 -2.306655 -17.008945 -37.839225 -19.950317 23.695649 -16.365467 -0.975224 15.951391 -21.375816 -34.915758 49.142560 -26.174362 16.526954 -1.397166 16.098109 
-0.020966 0.204488 0.944621 109.551102 -6.572707 78.960935 -1.459810 2.044111 -14.557887 -7.141367 -11.765975 35.370379 -1.480692 9.917189 -10.431931 0.000000 -0.000000 0.000000 -8.439932 -14.792863 -13.027640 -3.063289 -7.488405 45.908283 3.787414 -18.751033 -21.275195 0.000000 -0.000000 0.000000 5.856592 4.959558 29.189691 -4.358060 3.539266 4.385615 0.772711 7.188820 5.922901 -8.397136 -10.830579 17.462659 7.821053 -5.621484 -4.404773 14.848734 -8.542319 -17.779621 8.436170 -5.948747 -14.075129 95.105422 -64.015941 -92.261071 -2.743823 -17.629767 -37.551575 -19.626038 23.795150 -16.327552 -0.009681 17.199707 -20.779538 -35.263356 49.814033 -25.736506 16.792441 -1.903215 15.872308 
-0.021565 0.208194 0.946522 107.690190 -6.404738 79.061419 -1.288781 2.424368 -14.212238 -6.874582 -11.257073 35.232083 -1.612746 10.488151 -10.405853 0.000000 -0.000000 0.000000 -8.290561 -14.340359 -12.963012 -2.740519 -6.939758 45.227934 3.727542 -18.171343 -20.875780 0.000000 -0.000000 0.000000 5.703636 4.756073 28.874419 -3.872080 3.089461 4.352173 1.035990 7.212352 5.867099 -8.833034 -9.465279 17.422192 6.686876 -4.917565 -4.236229 15.817544 -8.962251 -18.254993 8.903964 -6.333563 -14.685701 91.499699 -64.376527 -89.067688 -3.339743 -17.368272 -37.038644 -19.117511 24.082461 -16.088207 0.938662 18.362912 -20.118062 -36.174311 50.719411 -26.083294 17.503055 -1.703831 15.209773 
-0.021878 0.212579 0.950481 105.621192 -6.154117 79.214803 -0.933350 2.855746 -13.479334 -6.565283 -10.541377 34.381903 -1.693913 10.974272 -10.003231 0.000000 -0.000000 0.000000 -8.042154 -13.873063 -12.583877 -2.181895 -6.164559 43.807413 3.684406 -17.726709 -20.074881 0.000000 -0.000000 0.000000 5.534155 4.411603 28.710542 -3.502055 2.456205 3.755893 1.225958 7.107924 6.377042 -9.079406 -8.074374 17.027603 5.663377 -4.176123 -3.753396 16.554488 -9.183321 -18.868887 9.647817 -7.130761 -15.321696 86.467570 -64.899892 -84.659958 -3.418422 -16.758504 -36.454126 -18.932179 23.936485 -16.470927 2.167819 20.048372 -18.905022 -37.118888 51.639046 -26.175051 17.279356 -2.295845 14.872389 
-0.022732 0.217618 0.955696 103.436866 -5.844987 79.552775 -0.569400 3.255253 -12.767583 -6.136007 -9.705860 33.149427 -1.889732 11.394564 -9.287621 0.000000 -0.000000 0.000000 -7.779644 -13.334134 -12.190165 -1.576473 -5.446252 41.930020 3.694070 -17.103626 -19.104417 0.000000 -0.000000 0.000000 5.390265 4.041326 28.162376 -3.154184 1.870850 3.945544 1.284835 6.649870 6.151304 -9.496963 -5.787815 16.400629 4.566233 -2.347353 -3.462321 17.376385 -10.027295 -18.859647 10.093508 -7.290428 -16.118372 81.122175 -64.991240 -79.704949 -3.718693 -16.523447 -35.140463 -18.761435 24.033034 -16.218366 2.864351 21.156460 -18.347320 -37.681095 52.941526 -25.965929 17.295304 -1.652980 14.217330 
-0.023181 0.223138 0.962126 101.185052 -5.481782 79.977860 -0.208586 3.736950 -11.899303 -5.670808 -8.993357 31.563363 -2.239556 11.813037 -8.444078 0.000000 -0.000000 0.000000 -7.442937 -12.753678 -11.639714 -1.168078 -4.788902 39.606098 3.713747 -16.289018 -17.903167 0.000000 -0.000000 0.000000 5.093761 3.456486 27.608182 -2.918341 1.047467 3.927513 1.319946 6.318001 6.116664 -9.738270 -3.577124 15.879541 3.688513 -0.674507 -3.147762 17.998153 -10.750617 -19.335723 10.474978 -7.662499 -16.517153 75.275077 -65.073613 -73.992591 -4.249561 -16.533524 -33.577603 -18.821518 24.116743 -16.194091 3.785068 22.172595 -17.303371 -39.026755 54.114736 -26.368875 16.920972 -1.665727 13.160719 
-0.023520 0.229185 0.969177 98.936106 -5.069271 80.392873 0.195692 4.147441 -10.806482 -5.110431 -8.087022 29.617532 -2.625048 12.076154 -7.608254 0.000000 -0.000000 0.000000 -7.184862 -12.272689 -10.794566 -0.652707 -4.053488 36.718715 3.821507 -15.317380 -16.392756 0.000000 -0.000000 0.000000 4.750931 2.988860 27.225029 -2.654932 0.184096 3.778517 1.472892 5.773203 6.031588 -9.994452 -1.482720 15.513639 2.620394 1.369984 -2.945988 18.384881 -11.258219 -19.631125 10.500339 -8.271080 -16.970097 69.676059 -64.914115 -68.705598 -4.647822 -16.162262 -31.801734 -18.717816 24.016939 -16.147851 4.186912 23.132163 -16.352173 -39.966334 55.175933 -26.932030 17.512037 -0.574198 11.816472 
-0.023736 0.235212 0.975922 96.474260 -4.607095 80.939991 0.627227 4.727887 -9.961934 -4.535072 -7.125173 27.872677 -3.187169 12.256881 -6.743223 0.000000 -0.000000 0.000000 -6.628397 -11.800952 -10.310310 -0.649694 -3.485497 34.141671 4.130524 -14.232561 -14.774559 0.000000 -0.000000 0.000000 4.431514 2.574878 26.833431 -2.522853 -0.498255 3.517157 1.527946 5.225211 5.949099 -10.105310 0.471655 15.255822 1.938222 3.319655 -2.765301 18.839632 -11.755791 -19.860289 10.233113 -8.703710 -17.313534 64.192936 -64.535568 -63.427038 -5.247483 -16.357912 -30.299949 -18.871439 23.635057 -16.162459 4.813633 23.819446 -15.577068 -40.906598 56.427549 -27.056631 17.421811 -0.312229 11.306438 
-0.023663 0.241431 0.981872 94.167392 -4.133255 81.588401 1.066974 5.122444 -9.252743 -4.155899 -6.136219 26.236867 -3.507906 12.370533 -5.982437 0.000000 -0.000000 0.000000 -6.078877 -11.002764 -9.792429 -0.499489 -2.590823 31.399653 4.575462 -13.391492 -13.317347 0.000000 -0.000000 0.000000 3.846233 2.128838 26.301597 -2.321148 -1.221738 3.251331 1.628567 4.808628 5.854232 -9.883391 2.132245 15.135795 1.141465 5.234831 -2.699692 18.957721 -12.103779 -19.568421 10.179830 -9.128204 -17.643948 59.617030 -63.753463 -59.173114 -6.182477 -16.452513 -29.497953 -18.687233 23.022172 -16.178066 5.122537 24.513767 -14.679608 -41.798885 57.361401 -27.716760 17.786685 0.558963 10.113977 
-0.023559 0.247679 0.986304 92.031860 -3.644846 82.118670 1.479811 5.626653 -8.716086 -3.887887 -5.261238 24.984524 -3.835690 12.613812 -5.576777 0.000000 -0.000000 0.000000 -5.532953 -10.313436 -9.569487 -0.511060 -2.024859 29.335681 5.033718 -12.957872 -11.908090 0.000000 -0.000000 0.000000 3.237811 1.589417 26.012032 -2.170078 -1.934842 2.721646 1.765786 4.237192 5.872302 -9.832374 3.775298 15.029226 0.533562 7.338866 -2.570594 18.896329 -12.406248 -19.367713 10.132178 -9.237858 -17.786194 55.281288 -63.139817 -55.060334 -6.878461 -16.448289 -28.604150 -18.708084 22.437362 -16.366334 5.402829 25.260482 -13.974290 -42.106459 57.910338 -28.022081 19.055026 0.931875 8.452335 
-0.023554 0.253910 0.988926 90.120477 -3.226310 82.492114 1.872884 5.828846 -8.236953 -3.932277 -4.480504 24.120925 -3.942880 13.101359 -5.551717 0.000000 -0.000000 0.000000 -5.225511 -9.691925 -9.526073 -0.412619 -1.437233 27.977358 5.448861 -12.369074 -10.993587 0.000000 -0.000000 0.000000 2.654081 1.086285 25.868982 -2.061138 -2.668416 2.150887 1.815197 3.727269 6.054260 -9.533318 5.505926 14.850534 0.063464 9.295003 -2.568388 18.785962 -12.560213 -19.386144 9.981700 -9.374133 -17.527543 51.768290 -62.631649 -51.771183 -6.602848 -15.824987 -27.792726 -18.685721 21.579123 -16.734268 5.621552 25.914637 -13.245365 -42.859476 58.552359 -29.005001 17.889022 0.567627 7.545938 
-0.023933 0.260027 0.989224 88.544632 -2.813809 82.902985 2.064450 6.126360 -8.354297 -3.805721 -3.592506 24.116531 -3.886894 13.521105 -6.250357 0.000000 -0.000000 0.000000 -4.878924 -9.138376 -10.074572 -0.434822 -0.873068 27.693723 5.875620 -12.040225 -10.492812 0.000000 -0.000000 0.000000 2.008048 0.470679 25.978767 -1.944647 -3.393573 1.269740 1.855797 3.219113 6.191861 -9.084282 6.794673 14.620832 -0.334506 11.192694 -2.280680 18.538058 -12.626630 -19.243053 9.942328 -9.356385 -17.457435 48.459615 -62.357270 -48.056882 -7.259350 -15.976461 -26.833200 -18.776242 20.824277 -16.931208 5.769204 26.211917 -12.792490 -43.937132 59.109416 -30.102699 17.988145 0.961252 6.237978 
-0.024517 0.266164 0.986763 87.310239 -2.474054 83.012789 2.076447 6.364162 -8.593489 -3.798871 -2.991897 24.728515 -3.380243 14.154998 -7.394158 0.000000 -0.000000 0.000000 -4.702040 -8.630547 -10.839271 -0.330409 -0.285769 28.435401 6.169979 -12.062560 -10.635928 0.000000 -0.000000 0.000000 1.472152 -0.103401 26.300099 -1.861924 -4.047210 0.593906 1.797750 2.528300 6.419231 -8.474786 8.035715 14.119669 -0.924456 13.055712 -2.126419 17.857708 -12.723685 -18.897919 10.547801 -9.091434 -17.345855 46.124268 -61.973085 -45.734580 -7.406719 -15.902223 -25.871882 -18.513489 19.948312 -17.360864 5.207654 26.623562 -12.406710 -44.919431 59.319488 -31.586695 17.948569 1.552225 5.381769 
-0.024823 0.271718 0.982168 86.366295 -2.171419 82.902566 1.945972 6.735094 -8.851543 -3.617665 -2.659544 25.786547 -2.739968 14.481337 -8.994444 0.000000 -0.000000 0.000000 -4.563768 -8.378776 -11.803758 -0.338448 0.194448 30.142442 6.261156 -11.991054 -11.151676 0.000000 -0.000000 0.000000 1.007012 -0.699513 26.943509 -1.932399 -4.625269 -0.196507 1.762895 1.995366 6.544569 -8.082087 8.807058 14.042074 -1.164306 14.867409 -2.226428 17.599372 -12.852238 -18.651681 10.147104 -8.736051 -17.381952 45.003499 -61.996237 -44.258719 -7.578117 -15.580556 -24.647762 -18.644201 19.152357 -17.807589 5.170309 26.436531 -12.516622 -46.210878 59.678895 -33.556087 18.165536 1.979203 4.503985 
